Simulation
nRows=40
nColumns=15
endheader
time  TH_x TH_y TH_z SC_y  SC_z  SC_x  AC_y  AC_z  AC_x  GH_y  GH_z  GH_yy  EL_x  PS_y
1.7000000000000002  0.000000  0.000000  0.000000  -31.55943907204328  5.264353743880957  15.775633233661614  65.83279242242966  15.993499518296137  -2.959544683927427  53.52824947284724  58.594983397317804  -51.418415463963704  23.102012545173448  0.000000
1.7340000000000002  0.000000  0.000000  0.000000  -31.543850531090406  5.2360750489294015  15.68647496935748  65.77561107773813  16.031481821889926  -2.996195730488359  53.35563136736332  58.43554445980024  -51.02650276627148  23.10023839063833  0.000000
1.7680000000000002  0.000000  0.000000  0.000000  -31.52603672669839  5.193169762275132  15.564422242116523  65.72027259564287  16.066341760888715  -3.040836336891004  53.139059184127554  58.1965463712081  -50.539828278828324  23.10374404429148  0.000000
1.802  0.000000  0.000000  0.000000  -31.506270236491478  5.135504739163236  15.410334993815155  65.6668524346513  16.096819278083828  -3.0934342587869286  52.878894257826985  57.87822740476653  -49.95935122005918  23.112421555902852  0.000000
1.836  0.000000  0.000000  0.000000  -31.484671259975975  5.062475057207402  15.225403599299973  65.61585205294338  16.1217038604846  -3.154648771489164  52.575007093343494  57.481215094505224  -49.28654975131494  23.126246149673314  0.000000
1.87  0.000000  0.000000  0.000000  -31.4620662458566  4.973683012994121  15.01135565226159  65.5671378579271  16.139527463498144  -3.2248887647196605  52.22775822093082  57.0069688797863  -48.52274047371058  23.14549166001703  0.000000
1.9040000000000001  0.000000  0.000000  0.000000  -31.438238610061067  4.870681801229254  14.769809712884332  65.51905051011043  16.147988536554937  -3.3039099832505765  51.83714852496321  56.45892964823819  -47.66959682786034  23.170595922515478  0.000000
1.9380000000000002  0.000000  0.000000  0.000000  -31.411680529691864  4.755551887356371  14.502146822676389  65.46930367527236  16.144380694838457  -3.3915130740737878  51.402846153691755  55.84086286007068  -46.728922286573024  23.20172203059552  0.000000
1.9720000000000002  0.000000  0.000000  0.000000  -31.383680933530048  4.628306666339086  14.209921449983122  65.41815562058248  16.126448180992693  -3.4871597737198043  50.92555410119823  55.15261148906037  -45.702961722842815  23.239111172083124  0.000000
2.0060000000000002  0.000000  0.000000  0.000000  -31.355712630910322  4.486556410562313  13.894575692866551  65.36711679915695  16.09359095895396  -3.5912846250535018  50.406293182351334  54.39187639092681  -44.59395795313961  23.282042770555865  0.000000
2.04  0.000000  0.000000  0.000000  -31.327450071206695  4.32952662537495  13.557400947018326  65.31593798165622  16.04481678561303  -3.704494009013677  49.84572832927739  53.55804624083374  -43.40435263859707  23.33000930342682  0.000000
2.0740000000000003  0.000000  0.000000  0.000000  -31.298575962209462  4.157720844144219  13.199841324408618  65.2629559826626  15.97868604467796  -3.826361153114212  49.244727163934236  52.652358832366694  -42.1368219769822  23.382408255678946  0.000000
2.108  0.000000  0.000000  0.000000  -31.268717775407325  3.9719901556456256  12.823833566795395  65.20668212385434  15.894160626193909  -3.9565751169746224  48.60399914092842  51.67665810709389  -40.794370492339475  23.439636745029205  0.000000
2.1420000000000003  0.000000  0.000000  0.000000  -31.236792524257407  3.7732523854913333  12.431282571168602  65.14525494844673  15.790687507473969  -4.094206502216897  47.92482346143718  50.633490689132664  -39.37984080011504  23.50252527083242  0.000000
2.176  0.000000  0.000000  0.000000  -31.20216886800699  3.5610842742009545  12.02447025767932  65.07852667550624  15.668207388544644  -4.239856796836707  47.20823324435532  49.525555895029115  -37.897043708103624  23.573313529269452  0.000000
2.21  0.000000  0.000000  0.000000  -31.16527162824413  3.336280716344027  11.60474178390442  65.00287877734881  15.52605458234427  -4.393945611827695  46.45608940728966  48.353906090108154  -36.34778124286387  23.65301961923638  0.000000
2.244  0.000000  0.000000  0.000000  -31.124171015323856  3.099849320352259  11.17117335139324  64.91192405773725  15.363843679002205  -4.557068363435164  45.66868531448659  47.11941803344121  -34.73559415305069  23.73736542454354  0.000000
2.278  0.000000  0.000000  0.000000  -31.07714108266311  2.8518991663502593  10.724460128460175  64.80104299951353  15.182113566864912  -4.7307836916563035  44.84584605855583  45.82344048398156  -33.06491936628765  23.82528038828785  0.000000
2.3120000000000003  0.000000  0.000000  0.000000  -31.02382111732992  2.593380079736811  10.265951119235112  64.6674780123032  14.982121317274599  -4.915091932177463  43.988892354563056  44.46847173293833  -31.339319950284537  23.917694485766724  0.000000
2.346  0.000000  0.000000  0.000000  -30.963401245367997  2.3258875552590115  9.796811265902809  64.50878108127291  14.765162172279918  -5.108748617686776  43.09964965166659  43.058378789105824  -29.562139471089168  24.014402707462782  0.000000
2.3800000000000003  0.000000  0.000000  0.000000  -30.89561607777551  2.0512267036835707  9.317988481567705  64.32416181081979  14.532677335167657  -5.310065958752326  42.17955402315031  41.597278240395056  -27.737979669627887  24.115905921135358  0.000000
2.414  0.000000  0.000000  0.000000  -30.821024060532114  1.7718496299235282  8.830535573657421  64.11272369193176  14.284710823735303  -5.516239093523282  41.230114544671565  40.089816363746046  -25.87097237049478  24.22126348210108  0.000000
2.4480000000000004  0.000000  0.000000  0.000000  -30.74058756979897  1.490400450043286  8.33495126153978  63.87397680939537  14.021806669981299  -5.724303837254231  40.25302195452933  38.54056634583593  -23.96507984359105  24.330259228661316  0.000000
2.482  0.000000  0.000000  0.000000  -30.655890821037918  1.2101936434238156  7.8319133332990925  63.60763039415504  13.743920914023928  -5.93052624964276  39.24998765865133  36.95412510550621  -22.024263451207744  24.442648008924497  0.000000
2.516  0.000000  0.000000  0.000000  -30.567715549151217  0.9357141475911136  7.323446480311233  63.3135752894587  13.448234556758575  -6.131063524360668  38.2222855750936  35.334037162418156  -20.053232534440284  24.557449466386476  0.000000
2.5500000000000003  0.000000  0.000000  0.000000  -30.476804196187675  0.6718308732628935  6.814576449122256  62.99001499343239  13.126387422768751  -6.32332881488649  37.17119887492138  33.68449662829745  -18.056559451629912  24.673845348107697  0.000000
2.584  0.000000  0.000000  0.000000  -30.38368464612098  0.4230856926180172  6.312023586299293  62.63557561684874  12.768107416188611  -6.506592206504638  36.09761867243775  32.009956455669986  -16.03988376587347  24.79130729532312  0.000000
2.6180000000000003  0.000000  0.000000  0.000000  -30.288353750583983  0.19173000627993358  5.822093299641763  62.24933288247445  12.365748743202003  -6.68248879285487  35.00285382804289  30.31590077133381  -14.008283019995702  24.90908341729707  0.000000
2.652  0.000000  0.000000  0.000000  -30.19022968400253  -0.022180482297832527  5.350119307277111  61.83283816501011  11.9151379537714  -6.853442388398109  33.888938216204906  28.607091938126693  -11.967209224716665  25.02633430503205  0.000000
2.6860000000000004  0.000000  0.000000  0.000000  -30.08950076270053  -0.21857253446649677  4.897669157860089  61.3880877690007  11.416287635884517  -7.01969668149381  32.759789382517404  26.88832138773826  -9.921530486340878  25.144087437435857  0.000000
2.72  0.000000  0.000000  0.000000  -29.985363695858137  -0.39810586536890136  4.46330245444557  60.91979024483134  10.872698739892929  -7.180041713211537  31.619358103462872  25.16351823572135  -7.87744898709981  25.26254235083889  0.000000
2.754  0.000000  0.000000  0.000000  -29.87610556181179  -0.5622977489385602  4.046425858154555  60.43084176431336  10.28976216274828  -7.3345939579509025  30.471795992640054  23.4362664445875  -5.8398716077898225  25.381965953342746  0.000000
2.7880000000000003  0.000000  0.000000  0.000000  -29.763667707563425  -0.7102996457670624  3.6472305636100772  59.92630992790249  9.673064126360126  -7.4826714753656045  29.319246546167737  21.710280368789498  -3.8154519664901363  25.503014979784048  0.000000
2.822  0.000000  0.000000  0.000000  -29.65037569474915  -0.8416441634260637  3.2642385391788977  59.40902979590881  9.032082331212496  -7.62327703142728  28.163060920852082  19.989312400907  -1.8103170290613533  25.6256710771848  0.000000
2.8560000000000003  0.000000  0.000000  0.000000  -29.537010784620925  -0.9572608945397453  2.894826149145202  58.88292256274747  8.378716570501636  -7.7560609804938005  27.004622496113797  18.277821016933743  0.16903754240413618  25.74830596768219  0.000000
2.89  0.000000  0.000000  0.000000  -29.423907615595333  -1.0570595908624802  2.540385965320578  58.35027207670283  7.719838393650675  -7.881223143492047  25.845301535230156  16.582350357391853  2.1151270723223647  25.86971123464399  0.000000
2.9240000000000004  0.000000  0.000000  0.000000  -29.313743357803173  -1.1414642820765708  2.205883699877418  57.81865272673559  7.060261721897281  -8.000404444334398  24.68730135867359  14.909945684905695  4.021799265896177  25.989576675231074  0.000000
2.958  0.000000  0.000000  0.000000  -29.207139666169414  -1.2074552643448524  1.8940509036655446  57.292870449368614  6.402028852498753  -8.112262968325583  23.53099473766512  13.265820372458032  5.8801304223307955  26.106780194267234  0.000000
2.992  0.000000  0.000000  0.000000  -29.10905992102291  -1.2558387678959013  1.604992140060554  56.77836684270206  5.750935664699719  -8.21486995596638  22.378330852394168  11.653329032789191  7.68359125006903  26.220425513147383  0.000000
3.0260000000000002  0.000000  0.000000  0.000000  -29.015723370298335  -1.2851626741693685  1.340466910278805  56.27689763593656  5.108725041224747  -8.30850124272841  21.23117802593891  10.077061212087747  9.42450439562408  26.326441640350037  0.000000
